<?xml version="1.0" encoding="UTF-8"?><svg id="uuid-e66f4314-ee64-42e3-95d8-2e072efdadf4" data-name="图层 1" xmlns="http://www.w3.org/2000/svg" viewBox="0 0 1080 1080"><path d="M28.48,375.58c14.34-58.95,42.99-110.12,77.29-158.02,44.78-62.52,101.78-111.77,169.19-149.06,60.25-33.33,124.09-54.64,192.59-63.14,63.43-7.87,126.92-7.88,188.99,5.47,71.97,15.48,140.14,42.42,197.37,90.97,13.42,11.38,17.81,29.91,21.73,45.61,11.81,47.3,24.54,94.4,24,144.34-.56,51.52.43,102.72-15.79,153.22-101.29-143.01-237.5-228.02-411.71-241.79-173.65-13.73-320.89,49.08-443.66,172.41Z" style="fill:#61c4ec;fill-rule:evenodd;stroke-width:0px"/><path d="M283.26,288.44c-165.8,362.33,65.53,709.51,373.6,775.6-22.55,12.35-46.35,13-68.9,14.36-69.2,4.19-138.17,1.12-204.71-21.03-72.65-24.19-139.33-58.26-198.2-109.12-56.18-48.53-98.82-106.3-132.22-171.1-26.45-51.31-41.28-106.89-47.21-164.68-3.46-33.72-7-67.09-5.08-101.36,1.4-24.89,11.07-43.03,26.24-60.69,61.73-71.87,139.04-120.66,226.85-153.97,8.43-3.2,17.48-4.78,29.63-8.01Z" style="fill:#61c4ec;fill-rule:evenodd;stroke-width:0px"/><path d="M938.23,179.82c22.75,18.86,38.93,42.12,54.14,65.51,49.17,75.65,76.51,159.7,85.72,248.83,4.52,43.72.38,87.97-5.65,132.08-10.72,78.29-40.99,149.28-82.31,214.4-33.85,53.34-79.28,98.64-131.5,135.85-23.69,16.88-47.74,32.97-73.36,47.01-32.01,17.54-63.14,4.81-93.42-1.79-65.21-14.21-124.53-43.67-179.59-80.91-21.29-14.4-39.89-32.77-63.83-52.77,177.6-18.36,318.82-92.92,416.6-237,97.68-143.94,118.71-302.59,73.21-471.22Z" style="fill:#61c4ec;fill-rule:evenodd;stroke-width:0px"/></svg>